<?xml version="1.0" encoding="UTF-8" standalone="no"?>
<svg width="2400px" height="100px" viewBox="0 0 2400 100" version="1.1" xmlns="http://www.w3.org/2000/svg" xmlns:xlink="http://www.w3.org/1999/xlink" xmlns:sketch="http://www.bohemiancoding.com/sketch/ns">
    <!-- Generator: Sketch 3.2.2 (9983) - http://www.bohemiancoding.com/sketch -->
    <title>icons</title>
    <desc>Created with Sketch.</desc>
    <defs></defs>
    <g id="Page-1" stroke="none" stroke-width="1" fill="none" fill-rule="evenodd" sketch:type="MSPage">
        <g id="icons" sketch:type="MSArtboardGroup">
            <g id="Imported-Layers" sketch:type="MSLayerGroup" transform="translate(25.000000, 2.000000)">
                <path d="M1471.64775,47.3638889 C1471.64775,73.2041667 1450.88819,94.1416667 1425.27261,94.1416667 C1399.66391,94.1416667 1378.90848,73.2041667 1378.90848,47.3638889 C1378.90848,21.5291667 1399.66391,0.597222222 1425.27261,0.597222222 C1450.88819,0.597222222 1471.64775,21.5291667 1471.64775,47.3638889" id="Fill-2" fill="#D9222A" sketch:type="MSShapeGroup"></path>
                <path d="M1271.85036,48.4708333 C1271.85036,74.3097222 1251.09493,95.2472222 1225.48623,95.2472222 C1199.87341,95.2472222 1179.11522,74.3097222 1179.11522,48.4708333 C1179.11522,22.6388889 1199.87341,1.70416667 1225.48623,1.70416667 C1251.09493,1.70416667 1271.85036,22.6388889 1271.85036,48.4708333" id="Fill-4" fill="#E47170" sketch:type="MSShapeGroup"></path>
                <path d="M1571.15036,48.4708333 C1571.15036,74.3097222 1550.38942,95.2472222 1524.78072,95.2472222 C1499.16652,95.2472222 1478.40971,74.3097222 1478.40971,48.4708333 C1478.40971,22.6388889 1499.16652,1.70416667 1524.78072,1.70416667 C1550.38942,1.70416667 1571.15036,22.6388889 1571.15036,48.4708333" id="Fill-1" fill="#E47170" sketch:type="MSShapeGroup"></path>
                <path d="M1505.70641,36.0180556 C1506.45678,35.9402778 1516.02562,35.8486111 1516.73743,35.7569444 C1540.6017,32.6888889 1535.79112,26.8555556 1541.29286,21.2638889 C1544.98547,17.5097222 1543.91156,69.4305556 1541.29286,66.1444444 C1536.38315,59.9833333 1540.6788,54.6236111 1516.33402,51.6097222 C1515.7475,51.5263889 1506.32185,51.4541667 1505.70641,51.3833333 C1498.76453,50.3986111 1498.76453,37.0069444 1505.70641,36.0180556 L1505.70641,36.0180556 Z M1543.60315,40.2416667 L1543.60315,40.2416667 C1545.37511,40.2416667 1546.80975,41.8736111 1546.80975,43.8916667 L1546.80975,44.9944444 C1546.80975,47.0097222 1545.37511,48.6486111 1543.60315,48.6486111 L1543.60315,40.2416667 Z M1522.8312,34.6472222 L1522.8312,52.7777778 L1522.8312,34.6472222 Z M1511.09663,73.7319444 C1510.22511,74.175 1509.70192,75.1666667 1509.93185,76.1916667 C1510.20308,77.3958333 1511.39264,78.1527778 1512.58359,77.8708333 L1522.38649,75.1666667 C1523.58982,74.8805556 1524.34018,73.6833333 1524.06895,72.4722222 C1523.79221,71.2680556 1522.35895,70.4208333 1520.69989,70.975 L1511.09663,73.7319444 Z M1520.61866,71.0055556 C1518.87699,67.5986111 1515.52308,61.0361111 1515.62496,61.0569444 C1515.77228,61.0944444 1519.19504,60.7722222 1519.2804,57.925 C1519.35062,55.0611111 1518.26844,52.375 1518.26844,52.375 C1518.26844,52.375 1514.66395,51.6638889 1508.28656,51.9902778 C1508.28656,52.0513889 1507.53895,55.2 1507.62844,58.8152778 C1507.71105,61.95 1510.18105,70.7819444 1511.09663,73.7319444 C1511.26047,73.6472222 1511.41467,73.5486111 1511.60467,73.5111111 L1520.61866,71.0055556 L1520.61866,71.0055556 Z" id="Stroke-5" stroke="#1A1918" stroke-width="2" stroke-linecap="round" stroke-linejoin="round" sketch:type="MSShapeGroup"></path>
                <path d="M1370.45855,48.4708333 C1370.45855,74.3097222 1349.69761,95.2472222 1324.09029,95.2472222 C1298.48159,95.2472222 1277.72616,74.3097222 1277.72616,48.4708333 C1277.72616,22.6388889 1298.48159,1.70416667 1324.09029,1.70416667 C1349.69761,1.70416667 1370.45855,22.6388889 1370.45855,48.4708333" id="Fill-3" fill="#D0DA30" sketch:type="MSShapeGroup"></path>
                <g id="Group" transform="translate(1295.000000, 24.000000)" stroke="#1A1918" stroke-width="2" sketch:type="MSShapeGroup" stroke-linecap="round" stroke-linejoin="round">
                    <path d="M51.1743478,5.33472222 C51.6755072,4.41666667 50.5093478,2.12361111 48.4331159,0.955555556 C46.3472464,-0.209722222 44.142971,-0.234722222 43.5082609,0.919444444 L29.7291304,25.7791667 L26.7042754,39.9416667 L37.5053623,29.8333333 C37.5053623,29.8333333 50.669058,6.25555556 51.1743478,5.33472222 L51.1743478,5.33472222 Z" id="Path"></path>
                    <path d="M43.9667391,8.94166664 C46.2268916,10.2411193 46.7148551,13.35 46.7148551,13.35 C47.2118841,12.4194444 46.0512319,10.15 43.9667391,8.97361111 C41.885,7.79583333 39.6738406,7.77916667 39.0473913,8.94166667 C39.0473913,8.94166667 41.7065865,7.64221403 43.9667391,8.94166664 Z" id="Path"></path>
                    <path d="M34.7682611,25.2125 C37.2983763,27.3538818 37.4461594,29.6277778 37.4461594,29.6277778 C37.9321739,28.7027778 36.805942,26.4152778 34.7682609,25.2527778 C32.7264493,24.0638889 30.557971,24.0569444 29.9301449,25.2125 C29.9301449,25.2125 32.2381458,23.0711182 34.7682611,25.2125 Z" id="Path"></path>
                    <path d="M27.853913,34.5486111 L30.8677536,36.0555556 L27.853913,34.5486111 Z" id="Path"></path>
                    <path d="M27.2811594,36.3888889 L29.2100725,37.7486111 L27.2811594,36.3888889 Z" id="Path"></path>
                    <path d="M27.0842754,37 L28.6565942,38.0333333 L27.0842754,37 Z" id="Path"></path>
                    <path d="M54.5626812,46.1361111 L16.4828261,46.1361111 L0.807826087,36.1263889 L38.8766667,36.1263889 L54.5626812,46.1361111 L54.5626812,46.1361111 Z" id="Path"></path>
                </g>
                <g id="Group" transform="translate(1406.000000, 26.000000)" stroke="#1A1918" stroke-width="2" sketch:type="MSShapeGroup" stroke-linecap="round" stroke-linejoin="round">
                    <path d="M2.49065217,5.67916667 L6.42557971,47.7347222 L34.5056522,47.7347222 L38.5521014,5.67916667 L2.49065217,5.67916667 Z" id="Path"></path>
                    <path d="M12.014058,10.4194444 L12.014058,41.0083333 L12.014058,10.4194444 Z" id="Path"></path>
                    <path d="M20.2074638,10.4194444 L20.2074638,41.0083333 L20.2074638,10.4194444 Z" id="Path"></path>
                    <path d="M28.4036232,10.4194444 L28.4036232,41.0083333 L28.4036232,10.4194444 Z" id="Path"></path>
                    <path d="M0.173478261,5.67916667 L42.3094203,5.67916667 L0.173478261,5.67916667 Z" id="Path"></path>
                    <path d="M28.8621014,2.56666667 C28.8621014,3.88472222 27.4371014,4.94444444 25.6981884,4.94444444 L15.2261594,4.94444444 C13.4748551,4.94444444 12.0691304,3.88472222 12.0691304,2.56666667 C12.0691304,1.22638889 13.4748551,0.163888889 15.2261594,0.163888889 L25.6981884,0.163888889 C27.4371014,0.163888889 28.8621014,1.22638889 28.8621014,2.56666667 L28.8621014,2.56666667 Z" id="Path"></path>
                </g>
                <path d="M1172.4308,47.3638889 C1172.4308,73.2041667 1151.67123,94.1416667 1126.05703,94.1416667 C1100.44558,94.1416667 1079.69014,73.2041667 1079.69014,47.3638889 C1079.69014,21.5291667 1100.44558,0.597222222 1126.05703,0.597222222 C1151.67123,0.597222222 1172.4308,21.5291667 1172.4308,47.3638889" id="Fill-6" fill="#E47170" sketch:type="MSShapeGroup"></path>
                <path d="M1152.69696,68.1847222 L1098.87464,68.1847222 C1096.92645,68.1847222 1095.34449,66.5875 1095.34449,64.6152778 L1095.34449,33.0597222 C1095.34449,31.1083333 1096.92645,29.4930556 1098.87464,29.4930556 L1109.53116,29.4930556 L1110.00065,27.0277778 C1110.30906,25.3944444 1111.45594,24.1513889 1112.66065,24.1513889 L1140.38826,24.1513889 C1141.61638,24.1513889 1142.73848,25.4027778 1143.02072,27.0625 L1143.44341,29.4930556 L1152.69696,29.4930556 C1154.63138,29.4930556 1156.21196,31.1083333 1156.21196,33.0597222 L1156.21196,64.6152778 C1156.21196,66.5875 1154.63138,68.1847222 1152.69696,68.1847222 L1152.69696,68.1847222 Z M1125.77754,61.8222222 C1117.22341,61.8222222 1110.25261,54.7916667 1110.25261,46.1680556 C1110.25261,37.5333333 1117.22341,30.5111111 1125.77754,30.5111111 C1134.33717,30.5111111 1141.30522,37.5333333 1141.30522,46.1680556 C1141.30522,54.7916667 1134.33717,61.8222222 1125.77754,61.8222222 L1125.77754,61.8222222 Z M1246.95623,46.4347222 C1246.95623,49.4194444 1249.25138,51.8388889 1252.06283,51.8388889 C1254.87841,51.8388889 1257.15978,49.4194444 1257.15978,46.4347222 C1257.15978,43.4680556 1254.87841,41.0486111 1252.06283,41.0486111 C1249.25138,41.0486111 1246.95623,43.4680556 1246.95623,46.4347222 L1246.95623,46.4347222 Z M1243.48116,27.6263889 C1235.02891,27.6263889 1227.95623,33.2972222 1225.61428,41.0611111 L1221.96848,37.4138889 L1211.50884,42.2263889 L1206.48072,39.2069444 L1200.72703,41.4472222 L1192.86681,38.5777778 L1185.73906,47.4861111 L1190.19442,53.7694444 L1226.15536,53.8708333 C1229.00261,60.7013889 1235.67464,65.5041667 1243.48116,65.5041667 C1253.84029,65.5041667 1262.26087,57.025 1262.26087,46.5736111 C1262.26087,36.1041667 1253.84029,27.6263889 1243.48116,27.6263889 L1243.48116,27.6263889 Z" id="Stroke-7" stroke="#1A1918" stroke-width="2" stroke-linecap="round" stroke-linejoin="round" sketch:type="MSShapeGroup"></path>
                <path d="M1071.32051,48.4708333 C1071.32051,74.3097222 1050.56507,95.2472222 1024.95638,95.2472222 C999.342174,95.2472222 978.582609,74.3097222 978.582609,48.4708333 C978.582609,22.6388889 999.342174,1.70416667 1024.95638,1.70416667 C1050.56507,1.70416667 1071.32051,22.6388889 1071.32051,48.4708333" id="Fill-9" fill="#6FB844" sketch:type="MSShapeGroup"></path>
                <path d="M871.84529,48.4708333 C871.84529,74.3097222 851.089855,95.2472222 825.481159,95.2472222 C799.872464,95.2472222 779.106014,74.3097222 779.106014,48.4708333 C779.106014,22.6388889 799.872464,1.70416667 825.481159,1.70416667 C851.089855,1.70416667 871.84529,22.6388889 871.84529,48.4708333" id="Fill-10" fill="#D9222A" sketch:type="MSShapeGroup"></path>
                <path d="M770.443116,48.4708333 C770.443116,74.3097222 749.684928,95.2472222 724.070725,95.2472222 C698.463406,95.2472222 677.705217,74.3097222 677.705217,48.4708333 C677.705217,22.6388889 698.463406,1.70416667 724.070725,1.70416667 C749.684928,1.70416667 770.443116,22.6388889 770.443116,48.4708333" id="Fill-11" fill="#4AB1D8" sketch:type="MSShapeGroup"></path>
                <path d="M972.402536,48.4708333 C972.402536,74.3097222 951.641594,95.2472222 926.031522,95.2472222 C900.418696,95.2472222 879.663261,74.3097222 879.663261,48.4708333 C879.663261,22.6388889 900.418696,1.70416667 926.031522,1.70416667 C951.641594,1.70416667 972.402536,22.6388889 972.402536,48.4708333" id="Fill-8" fill="#E6742A" sketch:type="MSShapeGroup"></path>
                <path d="M925.517029,20.0027778 C913.640652,20.0027778 904.009855,28.9222222 904.009855,39.9291667 C904.009855,54.5402778 925.517029,79.7666667 925.517029,79.7666667 C925.517029,79.7666667 947.031087,56.2013889 947.031087,39.9291667 C947.031087,28.9222222 937.396159,20.0027778 925.517029,20.0027778 L925.517029,20.0027778 Z M925.156304,53.2166667 C916.840362,53.2166667 910.113261,46.9694444 910.113261,39.2666667 C910.113261,31.5708333 916.840362,25.3236111 925.156304,25.3236111 C933.477754,25.3236111 940.210362,31.5708333 940.210362,39.2666667 C940.210362,46.9694444 933.477754,53.2166667 925.156304,53.2166667 L925.156304,53.2166667 Z M925.159058,31.9208333 C920.780797,31.9208333 917.235507,35.2055556 917.235507,39.2666667 C917.235507,43.3194444 920.780797,46.5986111 925.159058,46.5986111 C929.537319,46.5986111 933.086739,43.3194444 933.086739,39.2666667 C933.086739,35.2055556 929.537319,31.9208333 925.159058,31.9208333 L925.159058,31.9208333 Z" id="Stroke-12" stroke="#1A1918" stroke-width="2" stroke-linecap="round" stroke-linejoin="round" sketch:type="MSShapeGroup"></path>
                <path d="M699.257826,74.6569444 L704.000942,59.6263889 C701.343696,56.25 699.792029,52.1958333 699.792029,47.8444444 C699.792029,36.0472222 711.131449,26.4972222 725.111594,26.4972222 C739.086232,26.4972222 750.427029,36.0472222 750.427029,47.8444444 C750.427029,59.6347222 739.086232,69.1875 725.111594,69.1875 C720.503406,69.1875 716.189855,68.1458333 712.468333,66.325 L699.257826,74.6569444 L699.257826,74.6569444 Z" id="Path" stroke="#1A1918" stroke-width="2" stroke-linecap="round" stroke-linejoin="round" sketch:type="MSShapeGroup"></path>
                <path d="M1623.30036,95.2472222 C1648.90768,95.2472222 1669.66587,74.3097222 1669.66587,48.4708333 C1669.66587,22.6388889 1648.90768,1.70416667 1623.30036,1.70416667 C1597.68616,1.70416667 1576.92797,22.6388889 1576.92797,48.4708333 C1576.92797,74.3097222 1597.68616,95.2472222 1623.30036,95.2472222 Z" id="Fill-13" fill="#E47170" sketch:type="MSShapeGroup"></path>
                <g id="Stroke-14-+-Path" transform="translate(991.000000, 21.000000)" stroke="#1A1918" stroke-width="2" sketch:type="MSShapeGroup" stroke-linecap="round" stroke-linejoin="round">
                    <path d="M33.5185507,0.0236111111 L0.135,33.1083333 L26.880942,61.525 L60.8358696,26.6888889 L61.5862319,0.0805555556 L33.5185507,0.0236111111 L33.5185507,0.0236111111 Z M50.1683333,15.3861111 C47.7781884,15.3861111 45.83,13.4138889 45.83,11.0083333 C45.83,8.59444444 47.7781884,6.61805556 50.1683333,6.61805556 C52.5667391,6.61805556 54.5066667,8.59444444 54.5066667,11.0083333 C54.5066667,13.4138889 52.5667391,15.3861111 50.1683333,15.3861111 L50.1683333,15.3861111 Z M42.0355072,18.7805556 L19.581087,41.4263889 L42.0355072,18.7805556 Z" id="Stroke-14"></path>
                    <path d="M40.0021464,30.7680758 L40.1630352,30.6156764 C40.867509,29.8952427 41.3939119,29.1132334 41.7156893,28.2912001 C42.0359047,27.4522335 42.1811732,26.6009518 42.1452466,25.7635246 C42.1030719,24.9307155 41.9093806,24.1133004 41.5469905,23.326673 C41.2142789,22.6185544 40.7534811,21.955078 40.1630352,21.3747286 L38.9758952,20.2771448 C38.3682669,19.7368195 37.7090918,19.3211847 37.0046179,19.0117677 C36.2267288,18.6669447 35.4316574,18.489915 34.6240898,18.4606667 L34.4632011,18.4606667 C33.7181145,18.4606667 32.9792761,18.6069086 32.262306,18.8978529 C31.5000372,19.2088094 30.778381,19.6890985 30.127016,20.3725869 C29.3944257,21.1361235 28.8961393,21.9242903 28.641529,22.6909056 C28.404101,23.4421271 28.344744,24.2056637 28.4540858,24.972279 C28.5649897,25.7004097 28.8227241,26.4423948 29.2194787,27.1736042 L31.546898,30.2939442 C32.0139438,30.9758932 32.441939,31.6547634 32.8511899,32.3767365 C33.2994915,33.1649033 33.5978385,33.9669246 33.7540412,34.7489339 C33.9118058,35.5540339 33.9024337,36.359134 33.7056183,37.1703916 C33.5025549,37.9862674 33.0370711,38.8052219 32.2779263,39.5872312 C31.5812625,40.312283 30.7940013,40.8279781 29.9536311,41.1204619 C29.3116383,41.3405944 28.6477771,41.4606667 27.9854779,41.4606667 C27.7964728,41.4606667 27.6043435,41.4437334 27.4028421,41.4191032 C26.562472,41.3405944 25.7205398,41.0989104 24.9160962,40.7017483 C24.1772578,40.3384526 23.4899662,39.8735574 22.8776519,39.3270745 L21.7248764,38.2002423 C20.217521,36.4407215 19.4615003,34.7735641 19.4833687,33.2003093 C19.5083611,31.5762546 20.2987464,29.8613761 21.8638968,28.1311037 L22.0122893,27.9494559" id="Path"></path>
                </g>
                <path d="M826.34442,34.7555556 C816.542899,21.6291667 796.915072,29.3083333 796.915072,43.5972222 C796.915072,53.2458333 806.70558,60.1041667 814.071522,65.3305556 C821.752754,70.7194444 823.907464,71.8722222 826.34442,74.0513889 C828.815797,71.8722222 830.875507,70.5958333 838.646232,65.3305556 C846.103043,60.2444444 855.801304,53.1305556 855.801304,43.4819444 C855.801304,29.3083333 836.166594,21.6291667 826.34442,34.7555556 L826.34442,34.7555556 Z" id="Path" stroke="#1A1918" stroke-width="2" stroke-linecap="round" stroke-linejoin="round" sketch:type="MSShapeGroup"></path>
                <path d="M1635.96007,66.325 C1632.23717,68.1458333 1627.92362,69.1875 1623.31543,69.1875 C1609.3408,69.1875 1598,59.6347222 1598,47.8444444 C1598,36.0472222 1609.3408,26.4972222 1623.31543,26.4972222 C1637.29558,26.4972222 1648.63638,36.0472222 1648.63638,47.8444444 C1648.63638,52.1958333 1647.08471,56.25 1644.42609,59.6263889 L1649.1692,74.6569444 L1635.96007,66.325 L1635.96007,66.325 Z" id="Path" stroke="#1A1918" stroke-width="2" stroke-linecap="round" stroke-linejoin="round" sketch:type="MSShapeGroup"></path>
                <path d="M2271.065,48.4708333 C2271.065,74.3097222 2250.30406,95.2472222 2224.69536,95.2472222 C2199.08116,95.2472222 2178.32435,74.3097222 2178.32435,48.4708333 C2178.32435,22.6388889 2199.08116,1.70416667 2224.69536,1.70416667 C2250.30406,1.70416667 2271.065,22.6388889 2271.065,48.4708333 L2271.065,48.4708333 Z" id="Fill-15" stroke="#FFFFFF" stroke-width="6" fill="#E47170" sketch:type="MSShapeGroup"></path>
                <path d="M2205.70641,36.0180556 C2206.45678,35.9402778 2216.02562,35.8486111 2216.73743,35.7569444 C2240.6017,32.6888889 2235.79112,26.8555556 2241.29286,21.2638889 C2244.98547,17.5097222 2243.91156,69.4305556 2241.29286,66.1444444 C2236.38315,59.9833333 2240.6788,54.6236111 2216.33402,51.6097222 C2215.7475,51.5263889 2206.32185,51.4541667 2205.70641,51.3833333 C2198.76453,50.3986111 2198.76453,37.0069444 2205.70641,36.0180556 L2205.70641,36.0180556 Z M2243.60315,40.2416667 L2243.60315,40.2416667 C2245.37511,40.2416667 2246.80975,41.8736111 2246.80975,43.8916667 L2246.80975,44.9944444 C2246.80975,47.0097222 2245.37511,48.6486111 2243.60315,48.6486111 L2243.60315,40.2416667 Z M2222.8312,34.6472222 L2222.8312,52.7777778 L2222.8312,34.6472222 Z M2211.09801,73.7319444 C2210.22511,74.175 2209.70192,75.1666667 2209.93185,76.1916667 C2210.20308,77.3958333 2211.39264,78.1527778 2212.58359,77.8708333 L2222.38649,75.1666667 C2223.58982,74.8805556 2224.34018,73.6833333 2224.06895,72.4722222 C2223.79221,71.2680556 2222.35895,70.4208333 2220.69989,70.975 L2211.09801,73.7319444 Z M2220.62004,71.0055556 C2218.87699,67.5986111 2215.52308,61.0361111 2215.62496,61.0569444 C2215.77228,61.0944444 2219.19504,60.7722222 2219.2804,57.925 C2219.35062,55.0611111 2218.26844,52.375 2218.26844,52.375 C2218.26844,52.375 2214.66395,51.6638889 2208.28656,51.9902778 C2208.28656,52.0513889 2207.53895,55.2 2207.62844,58.8152778 C2207.71243,61.95 2210.18105,70.7819444 2211.09801,73.7319444 C2211.26047,73.6472222 2211.41467,73.5486111 2211.60467,73.5111111 L2220.62004,71.0055556 L2220.62004,71.0055556 Z" id="Stroke-19" stroke="#1A1918" stroke-width="2" stroke-linecap="round" stroke-linejoin="round" sketch:type="MSShapeGroup"></path>
                <path d="M2124.75855,95.2472222 C2099.14986,95.2472222 2078.39442,74.3097222 2078.39442,48.4708333 C2078.39442,22.6388889 2099.14986,1.70416667 2124.75855,1.70416667 C2150.36587,1.70416667 2171.12681,22.6388889 2171.12681,48.4708333 C2171.12681,74.3097222 2150.36587,95.2472222 2124.75855,95.2472222 Z" id="Fill-17" stroke="#FFFFFF" stroke-width="6" fill="#D0DA30" sketch:type="MSShapeGroup"></path>
                <g id="Group" transform="translate(2095.000000, 24.000000)" stroke="#1A1918" stroke-width="2" sketch:type="MSShapeGroup" stroke-linecap="round" stroke-linejoin="round">
                    <path d="M50.8426087,5.33472222 C51.3437681,4.41666667 50.1776087,2.12361111 48.1013768,0.955555556 C46.0155072,-0.209722222 43.8112319,-0.234722222 43.1765217,0.919444444 L29.3987681,25.7791667 L26.3725362,39.9416667 L37.1736232,29.8333333 C37.1736232,29.8333333 50.3386957,6.25555556 50.8426087,5.33472222 L50.8426087,5.33472222 Z" id="Path"></path>
                    <path d="M43.6349999,8.94166664 C46.383116,10.7149701 46.3831159,13.35 46.3831159,13.35 C46.8801449,12.4194444 45.7194928,10.15 43.635,8.97361111 C41.5546377,7.79583333 39.3421014,7.77916667 38.7156522,8.94166667 C38.7156522,8.94166667 40.4863281,6.87011717 43.6349999,8.94166664 Z" id="Path"></path>
                    <path d="M34.436522,25.2125 C37.1144204,26.9905803 37.1144203,29.6277778 37.1144203,29.6277778 C37.6004348,28.7027778 36.4742029,26.4152778 34.4365217,25.2527778 C32.3947101,24.0638889 30.2262319,24.0569444 29.5984058,25.2125 C29.5984058,25.2125 31.7586236,23.4344197 34.436522,25.2125 Z" id="Path"></path>
                    <path d="M27.5221739,34.5486111 L30.5360145,36.0555556 L27.5221739,34.5486111 Z" id="Path"></path>
                    <path d="M26.9494203,36.3888889 L28.8783333,37.7486111 L26.9494203,36.3888889 Z" id="Path"></path>
                    <path d="M26.7525362,37 L28.3248551,38.0333333 L26.7525362,37 Z" id="Path"></path>
                    <path d="M16.151087,46.1361111 L0.476086957,36.1263889 L38.5449275,36.1263889 L54.230942,46.1361111 L16.151087,46.1361111 Z" id="Path"></path>
                </g>
                <path d="M2024.735,95.2472222 C1999.11942,95.2472222 1978.35986,74.3097222 1978.35986,48.4708333 C1978.35986,22.6388889 1999.11942,1.70416667 2024.735,1.70416667 C2050.34232,1.70416667 2071.09775,22.6388889 2071.09775,48.4708333 C2071.09775,74.3097222 2050.34232,95.2472222 2024.735,95.2472222 Z" id="Fill-22" stroke="#FFFFFF" stroke-width="6" fill="#6FB844" sketch:type="MSShapeGroup"></path>
                <path d="M1871.62391,48.4708333 C1871.62391,74.3097222 1850.8671,95.2472222 1825.25978,95.2472222 C1799.64971,95.2472222 1778.88326,74.3097222 1778.88326,48.4708333 C1778.88326,22.6388889 1799.64971,1.70416667 1825.25978,1.70416667 C1850.8671,1.70416667 1871.62391,22.6388889 1871.62391,48.4708333 L1871.62391,48.4708333 Z" id="Fill-24" stroke="#FFFFFF" stroke-width="6" fill="#D9222A" sketch:type="MSShapeGroup"></path>
                <path d="M1723.84935,95.2472222 C1698.24065,95.2472222 1677.48384,74.3097222 1677.48384,48.4708333 C1677.48384,22.6388889 1698.24065,1.70416667 1723.84935,1.70416667 C1749.46217,1.70416667 1770.22036,22.6388889 1770.22036,48.4708333 C1770.22036,74.3097222 1749.46217,95.2472222 1723.84935,95.2472222 Z" id="Fill-26" stroke="#FFFFFF" stroke-width="6" fill="#4AB1D8" sketch:type="MSShapeGroup"></path>
                <path d="M1971.81174,48.4708333 C1971.81174,74.3097222 1951.0508,95.2472222 1925.4421,95.2472222 C1899.8279,95.2472222 1879.07384,74.3097222 1879.07384,48.4708333 C1879.07384,22.6388889 1899.8279,1.70416667 1925.4421,1.70416667 C1951.0508,1.70416667 1971.81174,22.6388889 1971.81174,48.4708333 L1971.81174,48.4708333 Z" id="Fill-20" stroke="#FFFFFF" stroke-width="6" fill="#E6742A" sketch:type="MSShapeGroup"></path>
                <path d="M1925.67109,20.0027778 C1913.79471,20.0027778 1904.16391,28.9222222 1904.16391,39.9291667 C1904.16391,54.5402778 1925.67109,79.7666667 1925.67109,79.7666667 C1925.67109,79.7666667 1947.18514,56.2013889 1947.18514,39.9291667 C1947.18514,28.9222222 1937.55022,20.0027778 1925.67109,20.0027778 L1925.67109,20.0027778 Z M1925.31036,53.2166667 C1916.99442,53.2166667 1910.26732,46.9694444 1910.26732,39.2666667 C1910.26732,31.5708333 1916.99442,25.3236111 1925.31036,25.3236111 C1933.63181,25.3236111 1940.36442,31.5708333 1940.36442,39.2666667 C1940.36442,46.9694444 1933.63181,53.2166667 1925.31036,53.2166667 L1925.31036,53.2166667 Z M1925.31312,31.9208333 C1920.93486,31.9208333 1917.38957,35.2055556 1917.38957,39.2666667 C1917.38957,43.3194444 1920.93486,46.5986111 1925.31312,46.5986111 C1929.69275,46.5986111 1933.2408,43.3194444 1933.2408,39.2666667 C1933.2408,35.2055556 1929.69275,31.9208333 1925.31312,31.9208333 L1925.31312,31.9208333 Z" id="Stroke-28" stroke="#1A1918" stroke-width="2" stroke-linecap="round" stroke-linejoin="round" sketch:type="MSShapeGroup"></path>
                <path d="M1699.03507,74.6569444 L1703.77819,59.6263889 C1701.12094,56.25 1699.56928,52.1958333 1699.56928,47.8444444 C1699.56928,36.0472222 1710.9087,26.4972222 1724.88884,26.4972222 C1738.86486,26.4972222 1750.20428,36.0472222 1750.20428,47.8444444 C1750.20428,59.6347222 1738.86486,69.1875 1724.88884,69.1875 C1720.28203,69.1875 1715.9671,68.1458333 1712.24558,66.325 L1699.03507,74.6569444 L1699.03507,74.6569444 Z" id="Path" stroke="#1A1918" stroke-width="2" stroke-linecap="round" stroke-linejoin="round" sketch:type="MSShapeGroup"></path>
                <path d="M2278.4658,48.4708333 C2278.4658,74.3097222 2299.22399,95.2472222 2324.83819,95.2472222 C2350.44688,95.2472222 2371.2037,74.3097222 2371.2037,48.4708333 C2371.2037,22.6388889 2350.44688,1.70416667 2324.83819,1.70416667 C2299.22399,1.70416667 2278.4658,22.6388889 2278.4658,48.4708333 L2278.4658,48.4708333 Z" id="Fill-29" stroke="#FFFFFF" stroke-width="6" fill="#E47170" sketch:type="MSShapeGroup"></path>
                <g id="Stroke-31-+-Path-2" transform="translate(1990.000000, 21.000000)" stroke="#1A1918" stroke-width="2" sketch:type="MSShapeGroup" stroke-linecap="round" stroke-linejoin="round">
                    <path d="M34.2957971,0.0236111111 L0.912246377,33.1083333 L27.6581884,61.525 L61.6131159,26.6888889 L62.3634783,0.0805555556 L34.2957971,0.0236111111 L34.2957971,0.0236111111 Z M50.9455797,15.3861111 C48.5554348,15.3861111 46.6086232,13.4138889 46.6086232,11.0083333 C46.6086232,8.59444444 48.5554348,6.61805556 50.9455797,6.61805556 C53.3439855,6.61805556 55.283913,8.59444444 55.283913,11.0083333 C55.283913,13.4138889 53.3439855,15.3861111 50.9455797,15.3861111 L50.9455797,15.3861111 Z M42.8141304,18.7805556 L20.3583333,41.4263889 L42.8141304,18.7805556 Z" id="Stroke-31"></path>
                    <path d="M40.5192389,30.7680758 L40.6801276,30.6156764 C41.3846015,29.8952427 41.9110044,29.1132334 42.2327818,28.2912001 C42.5529972,27.4522335 42.6982657,26.6009518 42.6623391,25.7635246 C42.6201643,24.9307155 42.4264731,24.1133004 42.064083,23.326673 C41.7313714,22.6185544 41.2705736,21.955078 40.6801276,21.3747286 L39.4929876,20.2771448 C38.8853594,19.7368195 38.2261843,19.3211847 37.5217104,19.0117677 C36.7438213,18.6669447 35.9487499,18.489915 35.1411823,18.4606667 L34.9802936,18.4606667 C34.235207,18.4606667 33.4963686,18.6069086 32.7793985,18.8978529 C32.0171297,19.2088094 31.2954735,19.6890985 30.6441085,20.3725869 C29.9115182,21.1361235 29.4132318,21.9242903 29.1586215,22.6909056 C28.9211935,23.4421271 28.8618365,24.2056637 28.9711783,24.972279 C29.0820822,25.7004097 29.3398165,26.4423948 29.7365712,27.1736042 L32.0639904,30.2939442 C32.5310363,30.9758932 32.9590315,31.6547634 33.3682824,32.3767365 C33.816584,33.1649033 34.114931,33.9669246 34.2711336,34.7489339 C34.4288983,35.5540339 34.4195261,36.359134 34.2227108,37.1703916 C34.0196474,37.9862674 33.5541636,38.8052219 32.7950188,39.5872312 C32.098355,40.312283 31.3110938,40.8279781 30.4707236,41.1204619 C29.8287308,41.3405944 29.1648696,41.4606667 28.5025704,41.4606667 C28.3135652,41.4606667 28.121436,41.4437334 27.9199346,41.4191032 C27.0795645,41.3405944 26.2376323,41.0989104 25.4331887,40.7017483 C24.6943503,40.3384526 24.0070587,39.8735574 23.3947444,39.3270745 L22.2419689,38.2002423 C20.7346135,36.4407215 19.9785928,34.7735641 20.0004612,33.2003093 C20.0254536,31.5762546 20.8158389,29.8613761 22.3809893,28.1311037 L22.5293818,27.9494559" id="Path-2"></path>
                </g>
                <path d="M1826.12304,34.7555556 C1816.32152,21.6291667 1796.6937,29.3083333 1796.6937,43.5972222 C1796.6937,53.2458333 1806.48283,60.1041667 1813.85014,65.3305556 C1821.53,70.7194444 1823.68471,71.8722222 1826.12304,74.0513889 C1828.59442,71.8722222 1830.65413,70.5958333 1838.42348,65.3305556 C1845.88029,60.2444444 1855.57855,53.1305556 1855.57855,43.4819444 C1855.57855,29.3083333 1835.94522,21.6291667 1826.12304,34.7555556 L1826.12304,34.7555556 Z" id="Path" stroke="#1A1918" stroke-width="2" stroke-linecap="round" stroke-linejoin="round" sketch:type="MSShapeGroup"></path>
                <path d="M2335.96007,66.325 C2332.23855,68.1458333 2327.92362,69.1875 2323.31543,69.1875 C2309.3408,69.1875 2298,59.6347222 2298,47.8444444 C2298,36.0472222 2309.3408,26.4972222 2323.31543,26.4972222 C2337.29558,26.4972222 2348.63638,36.0472222 2348.63638,47.8444444 C2348.63638,52.1958333 2347.08471,56.25 2344.42609,59.6263889 L2349.1692,74.6569444 L2335.96007,66.325 L2335.96007,66.325 Z" id="Path" stroke="#1A1918" stroke-width="2" stroke-linecap="round" stroke-linejoin="round" sketch:type="MSShapeGroup"></path>
                <path d="M624.206449,60.3416667 C623.080217,61.7416667 621.054928,61.9347222 619.676739,60.7986111 L606.385,49.8305556 C605.010942,48.6930556 604.808551,46.6472222 605.94029,45.2583333 C607.062391,43.8694444 609.087681,43.6694444 610.458986,44.8069444 L623.753478,55.7652778 C625.124783,56.9069444 625.339565,58.9555556 624.206449,60.3416667" id="Fill-32" fill="#2BAC6E" sketch:type="MSShapeGroup"></path>
                <path d="M620.326594,61.1305556 C618.949783,59.9972222 618.744638,57.9513889 619.875,56.5625 L638.830942,36.4027778 C639.953043,35.0111111 641.978333,34.8069444 643.355145,35.9402778 C644.731957,37.0861111 644.937101,39.1291667 643.813623,40.5180556 L624.859058,60.6763889 C623.731449,62.0638889 621.703406,62.2680556 620.326594,61.1305556" id="Fill-33" fill="#2BAC6E" sketch:type="MSShapeGroup"></path>
                <path d="M325.289638,26.5277778 C316.579928,26.5277778 309.518261,33.0680556 309.518261,41.1388889 C309.518261,51.8597222 325.289638,70.3625 325.289638,70.3625 C325.289638,70.3625 341.076159,53.0805556 341.076159,41.1388889 C341.076159,33.0680556 334.008986,26.5277778 325.289638,26.5277778 L325.289638,26.5277778 Z M325.028043,50.8861111 C318.926014,50.8861111 313.990145,46.3083333 313.990145,40.6541667 C313.990145,35.0083333 318.926014,30.4263889 325.028043,30.4263889 C331.130072,30.4263889 336.076957,35.0083333 336.076957,40.6541667 C336.076957,46.3083333 331.130072,50.8861111 325.028043,50.8861111 L325.028043,50.8861111 Z" id="Fill-34" fill="#F2AA5B" sketch:type="MSShapeGroup"></path>
                <path d="M325.028043,35.2638889 C321.820072,35.2638889 319.222029,37.6736111 319.222029,40.6541667 C319.222029,43.6319444 321.820072,46.0361111 325.028043,46.0361111 C328.245652,46.0361111 330.845072,43.6319444 330.845072,40.6541667 C330.845072,37.6736111 328.245652,35.2638889 325.028043,35.2638889" id="Fill-35" fill="#F2AA5B" sketch:type="MSShapeGroup"></path>
                <path d="M24.1547826,38.0625 C16.1334783,27.3097222 0.0619565217,33.6083333 0.0619565217,45.2944444 C0.0619565217,53.2208333 8.07913043,58.8277778 14.1095652,63.0902778 C20.3947101,67.5138889 22.1625362,68.4583333 24.1547826,70.2347222 C26.1814493,68.4583333 27.8694203,67.425 34.2357971,63.0902778 C40.3405797,58.9319444 48.2861594,53.1 48.2861594,45.2097222 C48.2861594,33.6083333 32.2063768,27.3097222 24.1547826,38.0625" id="Fill-36" fill="#E47170" sketch:type="MSShapeGroup"></path>
                <path d="M102.576594,71.8180556 L106.643696,58.9444444 C104.37058,56.0722222 103.050217,52.6027778 103.050217,48.8652778 C103.050217,38.7902778 112.748478,30.6277778 124.690942,30.6277778 C136.660942,30.6277778 146.361957,38.7902778 146.361957,48.8652778 C146.361957,58.9736111 136.660942,67.1402778 124.690942,67.1402778 C120.757391,67.1402778 117.062029,66.2375 113.878841,64.6986111 L102.576594,71.8180556" id="Fill-37" fill="#4AB1D8" sketch:type="MSShapeGroup"></path>
                <path d="M534.306159,64.6986111 C531.125725,66.2375 527.427609,67.1402778 523.496812,67.1402778 C511.526812,67.1402778 501.825797,58.9736111 501.825797,48.8652778 C501.825797,38.7902778 511.526812,30.6277778 523.496812,30.6277778 C535.439275,30.6277778 545.137536,38.7902778 545.137536,48.8652778 C545.137536,52.6027778 543.817174,56.0722222 541.544058,58.9444444 L545.611159,71.8180556 L534.306159,64.6986111" id="Fill-38" fill="#E47170" sketch:type="MSShapeGroup"></path>
                <path d="M226.278986,33.6611111 L203.225652,52.0416667 L220.613406,73.8722222 L244.225725,54.3222222 L246.903623,36.1416667 L226.278986,33.6611111 L226.278986,33.6611111 Z M237.294855,45.6347222 C235.531159,45.4263889 234.257609,43.9208333 234.450362,42.2625 C234.643116,40.6027778 236.227826,39.4361111 237.990145,39.6444444 C239.756594,39.8527778 241.024638,41.3569444 240.831884,43.0166667 C240.63913,44.675 239.059928,45.8444444 237.294855,45.6347222 L237.294855,45.6347222 Z" id="Fill-39" fill="#A3C93B" sketch:type="MSShapeGroup"></path>
                <path d="M405.349855,69.7916667 L433.629565,69.7916667 L433.629565,43.9222222 L405.349855,43.9222222 L405.349855,69.7916667 Z M415.203696,47.9819444 L425.045145,47.9819444 L425.045145,50.5597222 L415.203696,50.5597222 L415.203696,47.9819444 Z" id="Fill-40" fill="#E47170" sketch:type="MSShapeGroup"></path>
                <path d="M440.926667,60.8041667 L435.67,68.5013889 L435.67,43.9305556 L440.926667,36.6097222 L440.926667,60.8041667" id="Fill-41" fill="#E47170" sketch:type="MSShapeGroup"></path>
                <path d="M412.686884,33.775 L406.736304,41.5736111 L419.985362,41.5736111 L425.926304,33.775 L412.686884,33.775" id="Fill-42" fill="#E47170" sketch:type="MSShapeGroup"></path>
                <path d="M428.422464,33.7888889 L422.484275,41.5736111 L434.357899,41.5736111 L440.293333,33.7888889 L428.422464,33.7888889" id="Fill-43" fill="#E47170" sketch:type="MSShapeGroup"></path>
            </g>
        </g>
    </g>
</svg>